<?xml version="1.0" encoding="utf-8"?>
<!-- Generator: Adobe Illustrator 24.0.1, SVG Export Plug-In . SVG Version: 6.00 Build 0)  -->
<svg version="1.1" id="레이어_1" xmlns="http://www.w3.org/2000/svg" xmlns:xlink="http://www.w3.org/1999/xlink" x="0px"
	 y="0px" viewBox="0 0 700 500" style="enable-background:new 0 0 700 500;" xml:space="preserve">
<style type="text/css">
	.st0{clip-path:url(#SVGID_2_);fill:#88B9D4;}
	.st1{clip-path:url(#SVGID_2_);}
	.st2{fill:#FFFFFF;stroke:#C2E1EE;stroke-width:7;stroke-miterlimit:10;}
	.st3{fill:#5C5D60;stroke:#231F20;stroke-width:7;stroke-miterlimit:10;}
	.st4{fill:#F6921E;stroke:#F27321;stroke-width:7;stroke-miterlimit:10;}
	.st5{fill:#BC7213;stroke:#A64E0F;stroke-width:7;stroke-miterlimit:10;}
	.st6{fill:#F16C4A;stroke:#DC3928;stroke-width:7;stroke-miterlimit:10;}
</style>
<g>
	<g>
		<defs>
			<rect id="SVGID_1_" x="0.4" y="0.4" width="699.6" height="498.7"/>
		</defs>
		<clipPath id="SVGID_2_">
			<use xlink:href="#SVGID_1_"  style="overflow:visible;"/>
		</clipPath>
		<rect x="0.4" y="0.4" class="st0" width="699.6" height="498.7"/>
		<g class="st1">
			<ellipse class="st2" cx="115.6" cy="477.3" rx="103.7" ry="101.8"/>
			<ellipse class="st2" cx="19.1" cy="532.6" rx="39.1" ry="38.4"/>
			<ellipse class="st2" cx="155.5" cy="337.2" rx="77.7" ry="76.4"/>
			<g>
				<path class="st3" d="M225.4,199.1l-56.8-15.6c-5.8-1.6-11.8,1.7-13.4,7.4L136.7,256c-1.6,5.7,1.8,11.6,7.6,13.2l56.8,15.6
					c5.8,1.6,11.8-1.7,13.4-7.4l18.5-65.1C234.5,206.6,231.2,200.7,225.4,199.1z"/>
				<g>
					<g>
						<path class="st3" d="M225.1,291.4l-104.9-28.8c-3.5-1-5.6-4.5-4.6-8l1.4-4.8c1-3.5,4.6-5.5,8.1-4.5L230,274.1
							c3.5,1,5.6,4.5,4.6,8l-1.4,4.8C232.2,290.3,228.6,292.3,225.1,291.4z"/>
					</g>
				</g>
			</g>
			<ellipse class="st3" cx="134.8" cy="312.7" rx="9.6" ry="9.4"/>
			<ellipse class="st3" cx="126.4" cy="439.2" rx="9.6" ry="9.4"/>
			<ellipse class="st3" cx="188.4" cy="327.4" rx="9.6" ry="9.4"/>
			<path class="st4" d="M154.5,360.2c-5.1-0.7-8.7-4.8-7.6-8.7l1.6-5.3l1.6-5.3c1.1-3.9,6.5-5.5,11.1-3.5l33.2,14.8l2,0.9
				c8.2,3.7,5.4,13.3-3.5,12.2l-2.2-0.3L154.5,360.2z"/>
			<g>
				<path class="st5" d="M282.8,383.4l-1.3,42.9c-0.1,4-3.5,7.1-7.5,7l-0.1,0c-4-0.1-7.2-3.4-7.1-7.4l1.3-42.9c0.1-4,3.5-7.1,7.5-7
					l0.1,0C279.7,376.1,282.9,379.4,282.8,383.4z"/>
				<path class="st5" d="M319.5,412.7l-101,53.4c-3.6,1.9-8,0.6-9.9-2.9v0c-1.9-3.5-0.6-7.9,3-9.7l101-53.4c3.6-1.9,8-0.6,9.9,2.9v0
					C324.4,406.5,323.1,410.8,319.5,412.7z"/>
			</g>
			<g>
				<path class="st5" d="M23.7,318.3L2.1,355.7c-2,3.5-0.8,7.8,2.8,9.8h0c3.5,2,8,0.7,10-2.7l21.6-37.4c2-3.5,0.8-7.8-2.8-9.8h0
					C30.1,313.6,25.7,314.8,23.7,318.3z"/>
				<path class="st5" d="M-23.2,324.7l58.2,97.1c2.1,3.4,6.5,4.6,10,2.6h0c3.5-2,4.6-6.4,2.6-9.8l-58.2-97.1
					c-2.1-3.4-6.5-4.6-10-2.6h0C-24.1,316.8-25.3,321.3-23.2,324.7z"/>
			</g>
			<ellipse class="st3" cx="113.8" cy="483.6" rx="9.6" ry="9.4"/>
			<g>
				<path class="st6" d="M129.6,480.1l21.1-74.3c1.5-5.3,7.1-8.4,12.5-6.9l14.9,4.1c5.4,1.5,8.5,7,7,12.3L164,489.6
					c-1.5,5.3-7.1,8.4-12.5,6.9l-14.9-4.1C131.2,490.9,128.1,485.4,129.6,480.1z"/>
				<path class="st6" d="M197.6,426.6L72.3,392.2c-6.8-1.9-10.7-8.7-8.8-15.4l2.8-9.8c1.9-6.6,8.9-10.5,15.7-8.7l125.3,34.4
					c6.8,1.9,10.7,8.7,8.8,15.4l-2.8,9.8C211.3,424.6,204.3,428.5,197.6,426.6z"/>
			</g>
		</g>
	</g>
</g>
</svg>
